<?xml version="1.0" encoding="utf-8"?>
<!-- Generator: Adobe Illustrator 23.0.3, SVG Export Plug-In . SVG Version: 6.00 Build 0)  -->
<svg version="1.1" id="Capa_1" xmlns="http://www.w3.org/2000/svg" xmlns:xlink="http://www.w3.org/1999/xlink" x="0px" y="0px"
	 viewBox="0 0 589.21 296.55" style="enable-background:new 0 0 589.21 296.55;" xml:space="preserve">
<style type="text/css">
	.st0{fill:#494948;}
	.st1{fill:#2A4068;}
	.st2{fill:#267DB8;}
	.st3{fill:#277DB9;}
	.st4{fill:#FFFFFF;}
	.st5{fill:#FEFFFF;}
</style>
<path class="st0" d="M-6051.65-1905.63c-2.8-5.85-6.67-10.4-11.86-14.38c-5.31-4.07-11.07-7.17-17.31-9.55
	c-6.11-2.33-12.32-3.49-18.84-3.87c-5.54-0.33-13.67-0.04-18.28,3.46c-0.91,0.69-0.85,2.06,0.32,2.44c2.6,0.85,5.39,0.81,8.1,0.88
	c2.94,0.08,5.9,0.6,8.82,0.96c5.76,0.72,11.62,2.34,17.08,4.31c10.98,3.95,20.46,11.13,29.63,18.08
	C-6052.48-1902.17-6051-1904.28-6051.65-1905.63z"/>
<path class="st0" d="M-6034.58-1916.32c-2.83-7.83-4.68-16.74-5.39-25.05c-0.34-3.97-0.57-7.93-0.81-11.91
	c-0.26-4.32-1.27-8.14-2.13-12.35c-0.3-1.45-2.31-1.23-2.72,0c-1.48,4.42-2.57,8.27-2.32,12.98c0.23,4.25,0.96,8.6,1.99,12.72
	c1.03,4.11,2.04,8.1,3.66,12.02c1.77,4.28,3.74,8.27,5.86,12.38C-6035.92-1914.52-6034.18-1915.22-6034.58-1916.32z"/>
<path class="st0" d="M-5957.05-1900.61c-8.44-7.35-20.57-10.61-31.55-10.51c-5.81,0.05-11.83,1.24-17.32,3.13
	c-2.78,0.96-5.21,2.37-7.76,3.8c-2.66,1.49-4.28,3.11-6.44,5.14c-1.25,1.17,0.04,3.58,1.73,2.97c2.34-0.85,4.78-1.44,7.17-2.28
	c2.41-0.86,4.94-1.3,7.42-1.96c5.01-1.35,10.04-1.97,15.21-2.28c5.11-0.3,10.25,0.06,15.34,0.39c5.27,0.34,10.14,2.07,15.2,3.35
	C-5957.11-1898.62-5956.23-1899.89-5957.05-1900.61z"/>
<path class="st0" d="M-6070.19-1896c-5.56-0.73-10.94-1.66-16.54-1.93c-5.56-0.27-11.33,0.03-16.83,0.95
	c-5.44,0.91-10.76,2.48-15.94,4.35c-5.02,1.82-10.5,4-14.78,7.22c-1.08,0.81-0.43,2.32,0.9,2.13c5.19-0.73,10.37-2.35,15.51-3.47
	c5.2-1.14,10.45-1.97,15.7-2.84c10.55-1.75,21.32-4.13,31.99-4.13C-6068.67-1893.72-6068.78-1895.82-6070.19-1896z"/>
<path class="st1" d="M147.88,272.32c-39.72,1.06-79.45,0.18-119.17,0.53c-2.63,0.02-3.14-0.93-3.13-3.32
	c0.11-38.69,0.13-77.39,0.18-116.08c0.19-18.27,6-34.9,15.72-50.06C60.76,73.33,88.31,56,123.86,51.89
	c31.16-3.61,58.92,5.13,83,24.84c21.68,17.74,34.86,40.8,38.94,68.59c4.65,31.68-2.55,60.61-22.45,85.85
	c-16.08,20.4-36.94,33.77-62.36,39.75C156.69,271.93,152.2,271.34,147.88,272.32z"/>
<path class="st2" d="M147.88,272.32c6.37-1.75,13-2.22,19.33-4.3c41.4-13.6,67.85-41.5,76.46-84.1
	c8.08-39.99-3.71-74.88-33.63-102.89c-17.54-16.42-38.65-25.73-62.7-28.08C112,49.5,81.71,60.6,56.89,85.62
	c-17.92,18.07-28.17,40.19-30.52,65.74c-0.06,0.71-0.41,1.39-0.62,2.08C22.07,89.79,68.16,32.71,131.28,22.78
	c69.2-10.89,133.24,35.45,144.43,104.51c10.89,67.21-35.09,131.64-102.26,143.35C164.98,272.12,156.48,272.87,147.88,272.32z"/>
<path class="st2" d="M322.63,174.28c7.26-6.65,14.83-8.16,23.09-6.64c4.03,0.74,7.66,2.52,9.95,6.07c1.47,2.29,2.43,2.25,4.22,0.32
	c5.34-5.77,12.26-7.5,19.79-6.74c11.04,1.11,17.52,7.76,17.81,18.94c0.38,14.63,0.11,29.28,0.22,43.93c0.02,2.34-0.81,3.11-3.1,3.01
	c-3.54-0.15-7.11-0.23-10.64,0.02c-3.09,0.22-3.68-1.09-3.65-3.85c0.12-11.39,0.06-22.78,0.04-34.17c0-1.62,0.01-3.26-0.19-4.87
	c-0.85-7.1-3.52-9.13-11.14-8.58c-5.42,0.39-8.87,4.27-8.88,10.1c-0.02,12.28-0.17,24.56,0.09,36.83c0.08,3.82-1.14,4.89-4.74,4.54
	c-3.08-0.3-6.22-0.25-9.31-0.01c-3.03,0.24-3.7-0.99-3.67-3.81c0.14-11.39,0.06-22.78,0.06-34.17c0-1.33,0.01-2.66-0.04-3.99
	c-0.31-8.55-7.63-12.59-15.3-8.42c-2.91,1.58-4.51,3.75-4.45,7.44c0.21,13.01-0.02,26.03,0.15,39.05c0.04,3.17-0.93,4.13-4,3.91
	c-4.4-0.32-10.11,1.36-12.87-0.83c-2.94-2.33-0.91-8.3-0.94-12.66c-0.12-15.83,0.03-31.65-0.12-47.48c-0.03-3.05,0.7-4.28,3.91-3.99
	c2.93,0.27,5.94,0.32,8.86-0.01C321.79,167.77,323.63,169.1,322.63,174.28z"/>
<path class="st2" d="M472.04,65.92c-1.25-5.35,1.67-5.33,4.87-5.11c3.8,0.27,8.71-1.52,11.11,0.83c2.43,2.37,0.75,7.29,0.76,11.09
	c0.05,16.41,0.07,32.81-0.1,49.22c-0.2,19.4-13.64,30.93-33.6,28.56c5.65-9.38,15.36-16.47,15.55-29.16
	c-3.82,2.55-7.32,4.84-11.58,5.45c-11.61,1.67-22.1-4.61-26.85-16.48c-4.04-10.1-4.18-20.56-1.12-30.86
	C436.82,60.13,454.6,53.96,472.04,65.92z"/>
<path class="st2" d="M322.24,66c6.08-4.68,11.83-7.23,18.47-6.36c10.42,1.37,17.25,7.42,20.41,17.25c2.89,9,3.13,18.36,1.34,27.59
	c-4.11,21.19-23.65,28.64-39.89,16.71c0,7.04,0,13.57,0,20.09c0,9.29,0,9.29-9.2,9.29c-8.29,0-8.29,0-8.29-8.34
	c-0.03-25.7,0.01-51.4-0.17-77.09c-0.02-3.52,0.95-4.73,4.44-4.38c2.78,0.28,5.61,0.1,8.41,0.05
	C320.76,60.76,323.94,60.36,322.24,66z"/>
<path class="st2" d="M422.64,99.79c-0.01,7.49-0.89,15.67,2,23.52c0.79,2.14-0.08,2.59-1.98,2.58c-4.14-0.03-8.28,0.03-12.42,0.04
	c-1.53,0-3.31-0.12-3.61-1.87c-0.81-4.7-2.6-2.08-4.53-0.88c-7.95,4.95-16.28,5.17-24.44,0.87c-7.14-3.76-10.63-10.04-10.35-18.21
	c0.33-9.57,8.1-17.26,19.1-19.01c5.13-0.82,10.3-1.06,15.48-0.83c2.39,0.11,2.99-0.83,2.97-3.07c-0.05-5.86-2.21-8.97-7.31-10.02
	c-5.16-1.06-8.98,0.87-10.68,5.89c-0.61,1.8-1.58,1.81-2.93,1.81c-4.14,0-8.29-0.13-12.42,0.05c-2.75,0.12-2.81-1.31-2.46-3.3
	c0.91-5.29,3.85-9.44,8.19-12.17c11.07-6.96,22.79-7.75,34.56-1.91c6.59,3.27,9.85,9.1,10.53,16.4
	C422.95,86.18,423.24,92.67,422.64,99.79z"/>
<path class="st2" d="M404.3,200.95c-0.12-16.59,7.66-28.6,20.57-32.48c20.95-6.29,39.35,6.57,40.88,28.59
	c0.33,4.75,0.03,9.46-1.06,14.09c-3.62,15.39-16.09,24.26-32.57,23.2c-14.99-0.96-25.96-11.92-27.49-27.5
	C404.42,204.66,404.38,202.43,404.3,200.95z"/>
<path class="st2" d="M495.22,92.73c-0.24-17.54,9.05-29.91,24.34-32.58c19.36-3.38,35.04,8.65,36.72,28.22
	c0.47,5.47,0.29,10.93-1.11,16.28c-4.07,15.51-17.01,23.88-34.14,22.1c-14.2-1.47-24.78-13.23-25.79-28.71
	C495.12,96.28,495.22,94.5,495.22,92.73z"/>
<path class="st2" d="M495.99,210.17c2.43-8.76,4.75-17.1,7.05-25.44c1.25-4.55,2.57-9.08,3.65-13.67c0.5-2.12,1.46-2.91,3.64-2.83
	c3.83,0.15,7.69,0.21,11.52-0.01c3.44-0.19,3.95,0.86,2.84,4.05c-6.31,18.1-12.7,36.17-18.44,54.45c-1.63,5.19-3.74,6.8-9.08,6.54
	c-9.99-0.49-10.01-0.14-13.14-9.45c-5.68-16.91-11.3-33.84-17.11-50.7c-1.26-3.66-1.12-5.43,3.45-4.9c4.37,0.51,9.71-1.62,12.94,0.8
	c3.04,2.28,2.74,7.79,3.91,11.87c2.69,9.35,5.3,18.72,7.96,28.08C495.25,209.21,495.47,209.4,495.99,210.17z"/>
<path class="st2" d="M558.83,186.87c0-14.04,0.07-28.09-0.06-42.13c-0.03-2.88,0.75-3.99,3.72-3.78c3.24,0.23,6.52,0.29,9.75-0.01
	c3.58-0.33,4.49,1,4.47,4.48c-0.13,25.87-0.07,51.74-0.07,77.61c0,2.37-0.13,4.74,0.03,7.09c0.16,2.36-0.79,3.15-3.08,3.02
	c-4.7-0.28-10.64,1.83-13.76-0.79c-3.03-2.54-0.89-8.61-0.96-13.12C558.73,208.45,558.83,197.66,558.83,186.87z"/>
<path class="st3" d="M548.01,200.95c0,9.31-0.11,18.62,0.06,27.92c0.06,3.15-0.61,4.62-4.13,4.32c-4.39-0.38-10.22,1.39-12.87-0.82
	c-3.08-2.58-0.97-8.61-1.01-13.12c-0.14-15.66,0.02-31.32-0.11-46.98c-0.02-2.99,0.68-4.3,3.9-4.05c3.38,0.26,6.8,0.24,10.19,0
	c3.05-0.21,4.1,0.76,4.03,3.92C547.89,181.74,548.01,191.34,548.01,200.95z"/>
<path class="st3" d="M457.32,141.01c-5.51,6.34-10.35,11.89-15.15,17.46c-0.86,1-1.92,1.34-3.13,1.35
	c-3.94,0.02-7.88,0.01-12.65,0.01c4.01-6.35,7.6-12.04,11.2-17.73c0.76-1.2,1.98-1.09,3.17-1.08
	C445.92,141.01,451.07,141.01,457.32,141.01z"/>
<path class="st3" d="M538.72,160.88c-5.76-0.08-9.79-3.9-9.71-9.22c0.07-5.14,4.34-8.92,10.08-8.92c5.82,0,10.2,4.15,10.01,9.48
	C548.91,157.23,544.45,160.96,538.72,160.88z"/>
<path class="st4" d="M186.53,136.14c-0.71,0.81-1.24,1.51-1.86,2.13c-20.15,20.19-40.33,40.36-60.43,60.6
	c-1.79,1.8-2.9,1.72-4.63-0.03C108.37,187.5,97.07,176.22,85.72,165c-1.8-1.78-1.74-2.92,0.1-4.58c3.39-3.06,6.35-8.51,9.94-8.91
	c3.71-0.41,6.6,5.48,9.88,8.57c4.73,4.46,9.4,9,13.85,13.73c2.02,2.14,3.12,2.02,5.14-0.03c15.38-15.55,30.97-30.91,46.31-46.5
	c2.68-2.72,4.39-3.53,7.04-0.14c1.98,2.54,4.57,4.61,6.86,6.92C185.44,134.69,185.93,135.4,186.53,136.14z"/>
<path class="st4" d="M470.91,93.72c0,2.65-0.25,5.34,0.05,7.95c0.57,4.94-1.13,8.25-5.94,9.93c-5.54,1.94-10.89,0.81-14.08-3.22
	c-0.81-1.03-1.6-2.17-2.03-3.39c-2.88-8.08-3.01-16.25,0.5-24.08c3.2-7.15,12.99-8.98,19.12-4.08c1.78,1.42,2.44,3.17,2.4,5.39
	C470.85,86.05,470.91,89.89,470.91,93.72z"/>
<path class="st4" d="M345.95,94.1c-0.1,3.49-0.63,8.02-2.57,12.25c-2.47,5.41-6.8,7.31-13.22,5.88c-5.37-1.2-7.56-4.13-7.57-10.17
	c-0.01-5.75-0.01-11.51,0-17.26c0-5.98,2.14-9.2,6.82-10.3c6.43-1.51,11.25,0.42,14,5.59C344.96,83.01,345.94,88.01,345.95,94.1z"/>
<path class="st5" d="M399.46,96.58c1.44,0.69,3.92-1.32,5.22,1.13c1.26,2.39-0.15,10.61-1.91,12.16c-3.06,2.67-6.71,3.72-10.69,3.32
	c-3.29-0.33-6.21-1.73-6.85-5.26c-0.7-3.84,0.1-7.44,3.97-9.5C392.27,96.78,395.66,96.51,399.46,96.58z"/>
<path class="st4" d="M448.03,201.04c0.12,3.57-0.27,7.08-1.53,10.45c-2.27,6.1-5.84,8.61-11.99,8.43c-6.1-0.18-9.57-2.9-11.3-9.28
	c-1.81-6.69-1.85-13.47,0.15-20.13c1.72-5.73,5.53-8.76,10.75-9.03c5.82-0.3,9.83,2.4,12.28,8.24
	C447.91,193.36,448.16,197.17,448.03,201.04z"/>
<path class="st4" d="M512.59,93.34c0-3.56,0.25-7.08,1.45-10.47c2.12-5.99,5.56-8.6,11.37-8.58c6.36,0.02,9.74,2.38,11.73,8.65
	c2.29,7.22,2.47,14.52-0.24,21.7c-2.08,5.5-5.64,7.92-11.03,7.85c-6.21-0.08-9.6-2.47-11.69-8.25
	C512.91,100.7,512.6,97.04,512.59,93.34z"/>
</svg>
